<svg width="50" height="50" viewBox="0 0 50 50" xmlns="http://www.w3.org/2000/svg">
<path d="M36 23.4188C35.3696 23.142 34.6885 22.9994 34 23H16C15.3116 22.9993 14.6305 23.1417 14 23.4181C13.1089 23.8078 12.3506 24.4487 11.8178 25.2624C11.285 26.0761 11.0009 27.0274 11 28V35C11 35.2652 11.1054 35.5196 11.2929 35.7071C11.4804 35.8946 11.7348 36 12 36C12.2652 36 12.5196 35.8946 12.7071 35.7071C12.8946 35.5196 13 35.2652 13 35V34.5C13.0016 34.3679 13.0548 34.2417 13.1482 34.1482C13.2417 34.0548 13.3679 34.0016 13.5 34H36.5C36.6321 34.0016 36.7583 34.0548 36.8518 34.1482C36.9452 34.2417 36.9984 34.3679 37 34.5V35C37 35.2652 37.1054 35.5196 37.2929 35.7071C37.4804 35.8946 37.7348 36 38 36C38.2652 36 38.5196 35.8946 38.7071 35.7071C38.8946 35.5196 39 35.2652 39 35V28C38.999 27.0275 38.7148 26.0763 38.182 25.2628C37.6493 24.4492 36.891 23.8084 36 23.4188Z"/>
<path d="M32.5 14H17.5C16.5717 14 15.6815 14.3687 15.0251 15.0251C14.3687 15.6815 14 16.5717 14 17.5V22C14 22.0387 14.0091 22.0769 14.0264 22.1116C14.0437 22.1463 14.0688 22.1764 14.0998 22.1997C14.1308 22.223 14.1667 22.2387 14.2048 22.2457C14.2429 22.2527 14.2822 22.2508 14.3194 22.24C14.8653 22.0803 15.4312 21.9995 16 22H16.2644C16.3261 22.0004 16.3858 21.9779 16.4319 21.937C16.4781 21.896 16.5074 21.8394 16.5144 21.7781C16.5689 21.2895 16.8015 20.8381 17.1678 20.5101C17.5341 20.1821 18.0083 20.0005 18.5 20H22C22.492 20 22.9667 20.1814 23.3334 20.5095C23.7 20.8375 23.9329 21.2892 23.9875 21.7781C23.9944 21.8394 24.0238 21.896 24.07 21.937C24.1161 21.9779 24.1758 22.0004 24.2375 22H25.7663C25.828 22.0004 25.8876 21.9779 25.9338 21.937C25.9799 21.896 26.0093 21.8394 26.0163 21.7781C26.0708 21.2898 26.3031 20.8387 26.669 20.5107C27.0349 20.1828 27.5087 20.001 28 20H31.5C31.992 20 32.4667 20.1814 32.8334 20.5095C33.2 20.8375 33.4329 21.2892 33.4875 21.7781C33.4944 21.8394 33.5238 21.896 33.57 21.937C33.6161 21.9779 33.6758 22.0004 33.7375 22H34C34.5688 21.9997 35.1347 22.0808 35.6806 22.2406C35.7179 22.2514 35.7572 22.2533 35.7953 22.2463C35.8335 22.2393 35.8695 22.2235 35.9004 22.2001C35.9314 22.1768 35.9565 22.1465 35.9738 22.1118C35.9911 22.0771 36.0001 22.0388 36 22V17.5C36 16.5717 35.6313 15.6815 34.9749 15.0251C34.3185 14.3687 33.4283 14 32.5 14Z"/>
</svg>