<svg width="22" height="24" viewBox="0 0 22 24" xmlns="http://www.w3.org/2000/svg">
<path d="M20.94 15.7449L18.84 13.6332V8.42992C18.8679 6.49771 18.1958 4.62065 16.9478 3.14531C15.6998 1.66997 13.9601 0.696008 12.05 0.403251C10.9415 0.257262 9.81451 0.349368 8.74438 0.673422C7.67424 0.997476 6.68552 1.54603 5.84418 2.28247C5.00285 3.01892 4.32824 3.92632 3.86538 4.94414C3.40252 5.96197 3.16205 7.06679 3.16 8.18492V13.6332L1.06 15.7449C0.796227 16.0131 0.617351 16.3531 0.545738 16.7223C0.474124 17.0916 0.51295 17.4738 0.657361 17.8212C0.801773 18.1685 1.04536 18.4656 1.35768 18.6752C1.67 18.8849 2.03718 18.9978 2.41334 18.9999H6.33334V19.3966C6.38783 20.581 6.90962 21.6955 7.78435 22.4959C8.65909 23.2963 9.81543 23.7172 11 23.6666C12.1846 23.7172 13.3409 23.2963 14.2157 22.4959C15.0904 21.6955 15.6122 20.581 15.6667 19.3966V18.9999H19.5867C19.9628 18.9978 20.33 18.8849 20.6423 18.6752C20.9546 18.4656 21.1982 18.1685 21.3426 17.8212C21.4871 17.4738 21.5259 17.0916 21.4543 16.7223C21.3827 16.3531 21.2038 16.0131 20.94 15.7449ZM13.3333 19.3966C13.2686 19.9578 12.9899 20.4723 12.5553 20.8331C12.1206 21.1939 11.5635 21.373 11 21.3333C10.4365 21.373 9.87942 21.1939 9.44475 20.8331C9.01009 20.4723 8.73137 19.9578 8.66667 19.3966V18.9999H13.3333V19.3966Z"/>
</svg>
