
<svg width="16" height="18" viewBox="0 0 16 18" xmlns="http://www.w3.org/2000/svg">
<path d="M15.1001 11.6751L13.6001 10.1668V6.45012C13.6201 5.06997 13.14 3.72921 12.2486 2.6754C11.3571 1.62158 10.1145 0.925895 8.75014 0.716782C7.95832 0.612505 7.15336 0.678294 6.38898 0.909762C5.6246 1.14123 4.91837 1.53305 4.31741 2.05908C3.71646 2.58512 3.2346 3.23326 2.90398 3.96028C2.57337 4.68729 2.4016 5.47646 2.40014 6.27512V10.1668L0.900142 11.6751C0.711731 11.8667 0.583962 12.1095 0.532809 12.3733C0.481656 12.6371 0.509389 12.9101 0.61254 13.1581C0.715691 13.4062 0.889684 13.6184 1.11277 13.7682C1.33585 13.9179 1.59813 13.9986 1.86681 14.0001H4.66681V14.2835C4.70573 15.1295 5.07844 15.9255 5.70325 16.4972C6.32806 17.0689 7.15402 17.3696 8.00014 17.3335C8.84627 17.3696 9.67223 17.0689 10.297 16.4972C10.9218 15.9255 11.2946 15.1295 11.3335 14.2835V14.0001H14.1335C14.4022 13.9986 14.6644 13.9179 14.8875 13.7682C15.1106 13.6184 15.2846 13.4062 15.3877 13.1581C15.4909 12.9101 15.5186 12.6371 15.4675 12.3733C15.4163 12.1095 15.2886 11.8667 15.1001 11.6751ZM9.66681 14.2835C9.62059 14.6843 9.42151 15.0518 9.11104 15.3095C8.80056 15.5672 8.40263 15.6952 8.00014 15.6668C7.59766 15.6952 7.19973 15.5672 6.88925 15.3095C6.57877 15.0518 6.37969 14.6843 6.33348 14.2835V14.0001H9.66681V14.2835Z"/>
</svg>
