<svg width="16" height="16" viewBox="0 0 16 16" xmlns="http://www.w3.org/2000/svg">
<path d="M6 0.278054C6.09761 0.396667 6.15741 0.541826 6.17168 0.694777C6.18594 0.847728 6.154 1.00144 6.08 1.13605C5.50186 2.19753 5.19993 3.38735 5.202 4.59605C5.202 8.61705 8.48 11.8731 12.52 11.8731C13.047 11.8731 13.56 11.8181 14.053 11.7131C14.2041 11.6803 14.3615 11.6928 14.5056 11.749C14.6497 11.8052 14.774 11.9026 14.863 12.0291C14.957 12.1605 15.0049 12.3193 14.9993 12.4808C14.9937 12.6423 14.9349 12.7974 14.832 12.9221C14.0477 13.8855 13.0582 14.6618 11.9358 15.1942C10.8134 15.7267 9.58632 16.002 8.344 16.0001C3.734 16.0001 0 12.2861 0 7.71005C0 4.26605 2.114 1.31205 5.124 0.0600544C5.27394 -0.00331379 5.44039 -0.0163198 5.59835 0.02299C5.75631 0.0622999 5.89725 0.151803 6 0.278054Z"/>
<path d="M10.7938 3.14809C10.8082 3.10478 10.8358 3.0671 10.8728 3.04039C10.9097 3.01368 10.9542 2.9993 10.9998 2.9993C11.0454 2.9993 11.0899 3.01368 11.1269 3.04039C11.1638 3.0671 11.1915 3.10478 11.2058 3.14809L11.5928 4.31009C11.7658 4.82809 12.1718 5.23409 12.6898 5.40709L13.8518 5.79409C13.8951 5.80843 13.9328 5.83605 13.9595 5.87303C13.9862 5.91001 14.0006 5.95447 14.0006 6.00009C14.0006 6.04571 13.9862 6.09017 13.9595 6.12715C13.9328 6.16413 13.8951 6.19175 13.8518 6.20609L12.6898 6.59309C12.4343 6.67821 12.2022 6.82165 12.0118 7.01206C11.8214 7.20247 11.6779 7.43461 11.5928 7.69009L11.2058 8.85209C11.1915 8.8954 11.1638 8.93308 11.1269 8.95979C11.0899 8.9865 11.0454 9.00088 10.9998 9.00088C10.9542 9.00088 10.9097 8.9865 10.8728 8.95979C10.8358 8.93308 10.8082 8.8954 10.7938 8.85209L10.4068 7.69009C10.3217 7.43461 10.1782 7.20247 9.98784 7.01206C9.79743 6.82165 9.56529 6.67821 9.30981 6.59309L8.14781 6.20609C8.1045 6.19175 8.06682 6.16413 8.04011 6.12715C8.0134 6.09017 7.99902 6.04571 7.99902 6.00009C7.99902 5.95447 8.0134 5.91001 8.04011 5.87303C8.06682 5.83605 8.1045 5.80843 8.14781 5.79409L9.30981 5.40709C9.56529 5.32197 9.79743 5.17853 9.98784 4.98812C10.1782 4.7977 10.3217 4.56556 10.4068 4.31009L10.7938 3.14809ZM13.8628 0.0990895C13.8727 0.0706159 13.8912 0.0459255 13.9157 0.0284511C13.9403 0.0109768 13.9697 0.00158691 13.9998 0.00158691C14.0299 0.00158691 14.0593 0.0109768 14.0839 0.0284511C14.1084 0.0459255 14.1269 0.0706159 14.1368 0.0990895L14.3948 0.87309C14.5098 1.21909 14.7808 1.49009 15.1268 1.60509L15.9008 1.86309C15.9293 1.87296 15.954 1.89146 15.9714 1.91601C15.9889 1.94057 15.9983 1.96995 15.9983 2.00009C15.9983 2.03023 15.9889 2.05961 15.9714 2.08417C15.954 2.10872 15.9293 2.12722 15.9008 2.13709L15.1268 2.39509C14.9563 2.45181 14.8014 2.54751 14.6743 2.67457C14.5472 2.80164 14.4515 2.95658 14.3948 3.12709L14.1368 3.90109C14.1269 3.92956 14.1084 3.95425 14.0839 3.97173C14.0593 3.9892 14.0299 3.99859 13.9998 3.99859C13.9697 3.99859 13.9403 3.9892 13.9157 3.97173C13.8912 3.95425 13.8727 3.92956 13.8628 3.90109L13.6048 3.12709C13.5481 2.95658 13.4524 2.80164 13.3253 2.67457C13.1983 2.54751 13.0433 2.45181 12.8728 2.39509L12.0988 2.13709C12.0703 2.12722 12.0456 2.10872 12.0282 2.08417C12.0107 2.05961 12.0013 2.03023 12.0013 2.00009C12.0013 1.96995 12.0107 1.94057 12.0282 1.91601C12.0456 1.89146 12.0703 1.87296 12.0988 1.86309L12.8728 1.60509C13.2188 1.49009 13.4898 1.21909 13.6048 0.87309L13.8628 0.10009V0.0990895Z"/>
</svg>
