<svg width="20" height="20" viewBox="0 0 20 20" xmlns="http://www.w3.org/2000/svg">
<path d="M9.99582 16.5319C10.2408 16.532 10.4772 16.6219 10.6602 16.7847C10.8432 16.9474 10.9602 17.1717 10.9888 17.4149L10.9958 17.5319V18.9879C10.9953 19.2427 10.8975 19.4877 10.7225 19.6729C10.5474 19.858 10.3083 19.9693 10.0539 19.9842C9.79956 19.999 9.54914 19.9161 9.35379 19.7525C9.15844 19.5889 9.03291 19.357 9.00282 19.1039L8.99582 18.9879V17.5319C8.99582 17.2667 9.10117 17.0124 9.28871 16.8248C9.47625 16.6373 9.7306 16.5319 9.99582 16.5319ZM16.0328 14.5999L17.0628 15.6299C17.2448 15.8187 17.3455 16.0713 17.343 16.3335C17.3405 16.5957 17.2352 16.8465 17.0497 17.0318C16.8641 17.217 16.6132 17.322 16.351 17.3241C16.0888 17.3262 15.8363 17.2252 15.6478 17.0429L14.6178 16.0139C14.4303 15.8263 14.325 15.5719 14.3251 15.3066C14.3252 15.0413 14.4307 14.7869 14.6183 14.5994C14.806 14.4119 15.0604 14.3066 15.3257 14.3067C15.5909 14.3068 15.8453 14.4123 16.0328 14.5999ZM5.37282 14.5999C5.56029 14.7875 5.6656 15.0418 5.6656 15.3069C5.6656 15.5721 5.56029 15.8264 5.37282 16.0139L4.34382 17.0439C4.15618 17.2314 3.90173 17.3367 3.63646 17.3366C3.37119 17.3365 3.11683 17.2311 2.92932 17.0434C2.74181 16.8558 2.63652 16.6014 2.63662 16.3361C2.63671 16.0708 2.74218 15.8164 2.92982 15.6289L3.95982 14.5989C4.1473 14.4118 4.4014 14.3067 4.66632 14.3067C4.93124 14.3067 5.18533 14.4118 5.37282 14.5989V14.5999ZM10.0098 4.47194C11.4751 4.47194 12.8804 5.05404 13.9166 6.09017C14.9527 7.12631 15.5348 8.53162 15.5348 9.99694C15.5348 11.4623 14.9527 12.8676 13.9166 13.9037C12.8804 14.9398 11.4751 15.5219 10.0098 15.5219C8.5445 15.5219 7.13919 14.9398 6.10305 13.9037C5.06691 12.8676 4.48482 11.4623 4.48482 9.99694C4.48482 8.53162 5.06691 7.12631 6.10305 6.09017C7.13919 5.05404 8.5445 4.47194 10.0098 4.47194ZM18.9778 9.01794C19.2327 9.01822 19.4779 9.11582 19.6632 9.29079C19.8485 9.46576 19.9601 9.70489 19.975 9.95933C19.9899 10.2138 19.9071 10.4643 19.7436 10.6598C19.58 10.8552 19.3479 10.9808 19.0948 11.0109L18.9778 11.0179H17.5218C17.267 11.0174 17.022 10.9196 16.8369 10.7446C16.6518 10.5695 16.5404 10.3304 16.5256 10.076C16.5108 9.82168 16.5936 9.57126 16.7572 9.37591C16.9208 9.18056 17.1528 9.05503 17.4058 9.02494L17.5218 9.01794H18.9778ZM2.47882 8.98994C2.73361 8.99047 2.97859 9.08825 3.16374 9.2633C3.34888 9.43834 3.46023 9.67747 3.47503 9.93183C3.48984 10.1862 3.40699 10.4366 3.2434 10.632C3.07982 10.8273 2.84783 10.9528 2.59482 10.9829L2.47882 10.9899H1.02282C0.767938 10.9897 0.522786 10.8921 0.33745 10.7171C0.152114 10.5421 0.0405829 10.303 0.0256458 10.0485C0.0107087 9.7941 0.0934925 9.54356 0.257083 9.34811C0.420673 9.15265 0.652722 9.02704 0.905818 8.99694L1.02282 8.98994H2.47882ZM4.24882 2.87394L4.34382 2.95694L5.37382 3.98694C5.55317 4.1669 5.65729 4.40837 5.66505 4.66232C5.6728 4.91627 5.5836 5.16365 5.41557 5.35422C5.24754 5.54478 5.01327 5.66424 4.76034 5.68834C4.50742 5.71243 4.25481 5.63935 4.05382 5.48394L3.95782 5.39994L2.92982 4.37094C2.75047 4.19098 2.64634 3.94951 2.63859 3.69556C2.63084 3.44161 2.72003 3.19423 2.88807 3.00366C3.0561 2.8131 3.29037 2.69363 3.54329 2.66954C3.79622 2.64545 4.04883 2.71853 4.24982 2.87394H4.24882ZM17.0618 2.95694C17.234 3.12913 17.3374 3.35823 17.3527 3.60126C17.368 3.84428 17.2941 4.08454 17.1448 4.27694L17.0618 4.37094L16.0318 5.40094C15.8519 5.58029 15.6104 5.68441 15.3564 5.69217C15.1025 5.69992 14.8551 5.61072 14.6645 5.44269C14.474 5.27466 14.3545 5.04039 14.3304 4.78747C14.3063 4.53454 14.3794 4.28193 14.5348 4.08094L14.6188 3.98594L15.6478 2.95594C15.8353 2.76847 16.0897 2.66315 16.3548 2.66315C16.62 2.66315 16.8743 2.76847 17.0618 2.95594V2.95694ZM9.99982 0.0129395C10.2448 0.0129718 10.4812 0.102896 10.6642 0.265655C10.8472 0.428414 10.9642 0.652688 10.9928 0.895939L10.9998 1.01294V2.46794C10.9995 2.72282 10.9019 2.96797 10.727 3.15331C10.552 3.33864 10.3129 3.45017 10.0584 3.46511C9.80398 3.48005 9.55344 3.39726 9.35799 3.23367C9.16253 3.07008 9.03692 2.83804 9.00682 2.58494L8.99982 2.46794V1.01294C8.99982 0.747723 9.10518 0.493369 9.29271 0.305833C9.48025 0.118296 9.7346 0.0129395 9.99982 0.0129395Z"/>
</svg>
